<mxfile host="65bd71144e">
    <diagram id="ViX_H3rwAkUcB1lRx5En" name="Page-1">
        <mxGraphModel dx="1016" dy="569" grid="0" gridSize="10" guides="1" tooltips="1" connect="1" arrows="1" fold="1" page="0" pageScale="1" pageWidth="850" pageHeight="1100" math="0" shadow="0">
            <root>
                <mxCell id="0"/>
                <mxCell id="1" parent="0"/>
                <mxCell id="7" style="edgeStyle=none;html=1;exitX=0.5;exitY=1;exitDx=0;exitDy=0;entryX=0.5;entryY=0;entryDx=0;entryDy=0;" edge="1" parent="1" source="2" target="5">
                    <mxGeometry relative="1" as="geometry">
                        <mxPoint x="90" y="170" as="targetPoint"/>
                    </mxGeometry>
                </mxCell>
                <mxCell id="2" value="Start" style="ellipse;whiteSpace=wrap;html=1;fontStyle=1;fontSize=15;fillColor=#60a917;fontColor=#ffffff;strokeColor=#2D7600;gradientDirection=radial;" vertex="1" parent="1">
                    <mxGeometry x="35" y="70" width="150" height="60" as="geometry"/>
                </mxCell>
                <mxCell id="13" style="edgeStyle=none;html=1;entryX=0.5;entryY=0;entryDx=0;entryDy=0;" edge="1" parent="1" source="3" target="12">
                    <mxGeometry relative="1" as="geometry"/>
                </mxCell>
                <mxCell id="3" value="simulated_PWM_init()" style="whiteSpace=wrap;html=1;fillColor=#ffcd28;strokeColor=#d79b00;fontSize=14;fontStyle=1;gradientColor=#ffa500;" vertex="1" parent="1">
                    <mxGeometry x="30" y="280" width="160" height="60" as="geometry"/>
                </mxCell>
                <mxCell id="11" style="edgeStyle=none;html=1;entryX=0.499;entryY=-0.1;entryDx=0;entryDy=0;entryPerimeter=0;" edge="1" parent="1" source="5" target="3">
                    <mxGeometry relative="1" as="geometry"/>
                </mxCell>
                <mxCell id="5" value="Get t_on&lt;br&gt;Get t_off" style="shape=parallelogram;perimeter=parallelogramPerimeter;whiteSpace=wrap;html=1;fixedSize=1;fontSize=14;fontStyle=1;fillColor=#d80073;fontColor=#ffffff;strokeColor=#A50040;" vertex="1" parent="1">
                    <mxGeometry x="20" y="170" width="180" height="70" as="geometry"/>
                </mxCell>
                <mxCell id="12" value="while(1)" style="ellipse;whiteSpace=wrap;html=1;fillColor=#60a917;fontColor=#ffffff;strokeColor=#2D7600;fontSize=14;fontStyle=1" vertex="1" parent="1">
                    <mxGeometry x="35" y="390" width="150" height="60" as="geometry"/>
                </mxCell>
                <mxCell id="23" style="edgeStyle=none;html=1;entryX=0.5;entryY=0;entryDx=0;entryDy=0;fontSize=12;fontColor=#FFFFFF;" edge="1" parent="1" source="14" target="15">
                    <mxGeometry relative="1" as="geometry"/>
                </mxCell>
                <mxCell id="14" value="&lt;b&gt;STK_ISR()&lt;/b&gt;" style="ellipse;whiteSpace=wrap;html=1;fontSize=12;gradientDirection=radial;fillColor=#60a917;fontColor=#ffffff;strokeColor=#2D7600;" vertex="1" parent="1">
                    <mxGeometry x="390" y="30" width="140" height="60" as="geometry"/>
                </mxCell>
                <mxCell id="24" style="edgeStyle=none;html=1;entryX=0.5;entryY=0;entryDx=0;entryDy=0;fontSize=12;fontColor=#FFFFFF;" edge="1" parent="1" source="15" target="17">
                    <mxGeometry relative="1" as="geometry"/>
                </mxCell>
                <mxCell id="31" style="edgeStyle=none;html=1;fontSize=14;fontColor=#FFFFFF;" edge="1" parent="1" source="15">
                    <mxGeometry relative="1" as="geometry">
                        <mxPoint x="640" y="170" as="targetPoint"/>
                    </mxGeometry>
                </mxCell>
                <mxCell id="15" value="&lt;font color=&quot;#ffffff&quot; style=&quot;font-size: 12px&quot;&gt;On state ?&lt;/font&gt;" style="rhombus;whiteSpace=wrap;html=1;fontSize=12;gradientDirection=radial;fillColor=#fa6800;fontColor=#000000;strokeColor=#C73500;fontStyle=1" vertex="1" parent="1">
                    <mxGeometry x="405" y="120" width="110" height="100" as="geometry"/>
                </mxCell>
                <mxCell id="30" style="edgeStyle=none;html=1;exitX=0.5;exitY=1;exitDx=0;exitDy=0;entryX=0.5;entryY=0;entryDx=0;entryDy=0;fontSize=14;fontColor=#FFFFFF;" edge="1" parent="1" source="16" target="18">
                    <mxGeometry relative="1" as="geometry"/>
                </mxCell>
                <mxCell id="50" style="edgeStyle=none;html=1;fontSize=14;fontColor=#FFFFFF;exitX=1;exitY=0.5;exitDx=0;exitDy=0;" edge="1" parent="1" source="16">
                    <mxGeometry relative="1" as="geometry">
                        <mxPoint x="460" y="100" as="targetPoint"/>
                        <Array as="points">
                            <mxPoint x="755" y="100"/>
                        </Array>
                    </mxGeometry>
                </mxCell>
                <mxCell id="16" value="&lt;font color=&quot;#ffffff&quot; style=&quot;font-size: 12px&quot;&gt;Off State ?&lt;/font&gt;" style="rhombus;whiteSpace=wrap;html=1;fontSize=12;gradientDirection=radial;fillColor=#fa6800;fontColor=#000000;strokeColor=#C73500;fontStyle=1" vertex="1" parent="1">
                    <mxGeometry x="645" y="120" width="110" height="100" as="geometry"/>
                </mxCell>
                <mxCell id="28" style="edgeStyle=none;html=1;exitX=0.5;exitY=1;exitDx=0;exitDy=0;entryX=0.5;entryY=0;entryDx=0;entryDy=0;fontSize=14;fontColor=#FFFFFF;" edge="1" parent="1" source="17" target="20">
                    <mxGeometry relative="1" as="geometry"/>
                </mxCell>
                <mxCell id="36" style="edgeStyle=none;html=1;fontSize=14;fontColor=#FFFFFF;" edge="1" parent="1" source="17">
                    <mxGeometry relative="1" as="geometry">
                        <mxPoint x="570" y="440" as="targetPoint"/>
                        <Array as="points">
                            <mxPoint x="570" y="300"/>
                        </Array>
                    </mxGeometry>
                </mxCell>
                <mxCell id="17" value="&lt;font color=&quot;#ffffff&quot;&gt;on_ticks &amp;gt; max ?&lt;/font&gt;" style="rhombus;whiteSpace=wrap;html=1;fontSize=12;gradientDirection=radial;fillColor=#fa6800;fontColor=#000000;strokeColor=#C73500;fontStyle=1" vertex="1" parent="1">
                    <mxGeometry x="405" y="250" width="110" height="100" as="geometry"/>
                </mxCell>
                <mxCell id="29" style="edgeStyle=none;html=1;exitX=0.5;exitY=1;exitDx=0;exitDy=0;entryX=0.5;entryY=0;entryDx=0;entryDy=0;fontSize=14;fontColor=#FFFFFF;" edge="1" parent="1" source="18" target="21">
                    <mxGeometry relative="1" as="geometry"/>
                </mxCell>
                <mxCell id="35" style="edgeStyle=none;html=1;fontSize=14;fontColor=#FFFFFF;" edge="1" parent="1" source="18">
                    <mxGeometry relative="1" as="geometry">
                        <mxPoint x="582" y="440" as="targetPoint"/>
                        <Array as="points">
                            <mxPoint x="582" y="300"/>
                        </Array>
                    </mxGeometry>
                </mxCell>
                <mxCell id="18" value="&lt;font color=&quot;#ffffff&quot; style=&quot;font-size: 12px&quot;&gt;off_ticks &amp;gt; max ?&lt;/font&gt;" style="rhombus;whiteSpace=wrap;html=1;fontSize=12;gradientDirection=radial;fillColor=#fa6800;fontColor=#000000;strokeColor=#C73500;fontStyle=1" vertex="1" parent="1">
                    <mxGeometry x="645" y="250" width="110" height="100" as="geometry"/>
                </mxCell>
                <mxCell id="33" style="edgeStyle=none;html=1;exitX=0.25;exitY=1;exitDx=0;exitDy=0;entryX=0;entryY=0.5;entryDx=0;entryDy=0;fontSize=14;fontColor=#FFFFFF;" edge="1" parent="1" source="20" target="22">
                    <mxGeometry relative="1" as="geometry">
                        <Array as="points">
                            <mxPoint x="418" y="480"/>
                        </Array>
                    </mxGeometry>
                </mxCell>
                <mxCell id="20" value="&lt;font face=&quot;helvetica&quot;&gt;LedOff()&lt;br&gt;state = Off state&lt;br&gt;&lt;/font&gt;" style="whiteSpace=wrap;html=1;fillColor=#ffcd28;strokeColor=#d79b00;fontSize=14;fontStyle=1;gradientColor=#ffa500;" vertex="1" parent="1">
                    <mxGeometry x="375" y="370" width="170" height="60" as="geometry"/>
                </mxCell>
                <mxCell id="32" style="edgeStyle=none;html=1;exitX=0.75;exitY=1;exitDx=0;exitDy=0;fontSize=14;fontColor=#FFFFFF;entryX=1;entryY=0.5;entryDx=0;entryDy=0;" edge="1" parent="1" source="21" target="22">
                    <mxGeometry relative="1" as="geometry">
                        <mxPoint x="740" y="490" as="targetPoint"/>
                        <Array as="points">
                            <mxPoint x="740" y="480"/>
                        </Array>
                    </mxGeometry>
                </mxCell>
                <mxCell id="21" value="LedOn()&lt;br&gt;state = On state" style="whiteSpace=wrap;html=1;fillColor=#ffcd28;strokeColor=#d79b00;fontSize=14;fontStyle=1;gradientColor=#ffa500;" vertex="1" parent="1">
                    <mxGeometry x="620" y="370" width="160" height="60" as="geometry"/>
                </mxCell>
                <mxCell id="34" style="edgeStyle=none;html=1;entryX=0.5;entryY=0;entryDx=0;entryDy=0;fontSize=14;fontColor=#FFFFFF;" edge="1" parent="1" source="22" target="27">
                    <mxGeometry relative="1" as="geometry"/>
                </mxCell>
                <mxCell id="22" value="Timer_start(remaining time)" style="whiteSpace=wrap;html=1;fillColor=#ffcd28;strokeColor=#d79b00;fontSize=14;fontStyle=1;gradientColor=#ffa500;" vertex="1" parent="1">
                    <mxGeometry x="470" y="450" width="230" height="60" as="geometry"/>
                </mxCell>
                <mxCell id="27" value="&lt;b&gt;&lt;font style=&quot;font-size: 14px&quot;&gt;End&lt;/font&gt;&lt;/b&gt;" style="ellipse;whiteSpace=wrap;html=1;fontSize=12;gradientDirection=radial;fillColor=#60a917;fontColor=#ffffff;strokeColor=#2D7600;" vertex="1" parent="1">
                    <mxGeometry x="515" y="540" width="140" height="60" as="geometry"/>
                </mxCell>
                <mxCell id="40" value="No" style="text;html=1;strokeColor=none;fillColor=none;align=center;verticalAlign=middle;whiteSpace=wrap;rounded=0;fontSize=14;fontColor=#FFFFFF;" vertex="1" parent="1">
                    <mxGeometry x="500" y="140" width="60" height="30" as="geometry"/>
                </mxCell>
                <mxCell id="41" value="No" style="text;html=1;strokeColor=none;fillColor=none;align=center;verticalAlign=middle;whiteSpace=wrap;rounded=0;fontSize=14;fontColor=#FFFFFF;" vertex="1" parent="1">
                    <mxGeometry x="600" y="270" width="60" height="30" as="geometry"/>
                </mxCell>
                <mxCell id="46" value="No" style="text;html=1;strokeColor=none;fillColor=none;align=center;verticalAlign=middle;whiteSpace=wrap;rounded=0;fontSize=14;fontColor=#FFFFFF;" vertex="1" parent="1">
                    <mxGeometry x="500" y="270" width="60" height="30" as="geometry"/>
                </mxCell>
                <mxCell id="51" value="No" style="text;html=1;strokeColor=none;fillColor=none;align=center;verticalAlign=middle;whiteSpace=wrap;rounded=0;fontSize=14;fontColor=#FFFFFF;" vertex="1" parent="1">
                    <mxGeometry x="750" y="140" width="60" height="30" as="geometry"/>
                </mxCell>
                <mxCell id="53" value="Yes" style="text;html=1;strokeColor=none;fillColor=none;align=center;verticalAlign=middle;whiteSpace=wrap;rounded=0;fontSize=14;fontColor=#FFFFFF;" vertex="1" parent="1">
                    <mxGeometry x="455" y="340" width="60" height="30" as="geometry"/>
                </mxCell>
                <mxCell id="55" value="Yes" style="text;html=1;strokeColor=none;fillColor=none;align=center;verticalAlign=middle;whiteSpace=wrap;rounded=0;fontSize=14;fontColor=#FFFFFF;" vertex="1" parent="1">
                    <mxGeometry x="700" y="340" width="60" height="30" as="geometry"/>
                </mxCell>
                <mxCell id="56" value="Yes" style="text;html=1;strokeColor=none;fillColor=none;align=center;verticalAlign=middle;whiteSpace=wrap;rounded=0;fontSize=14;fontColor=#FFFFFF;" vertex="1" parent="1">
                    <mxGeometry x="455" y="220" width="60" height="30" as="geometry"/>
                </mxCell>
                <mxCell id="57" value="Yes" style="text;html=1;strokeColor=none;fillColor=none;align=center;verticalAlign=middle;whiteSpace=wrap;rounded=0;fontSize=14;fontColor=#FFFFFF;" vertex="1" parent="1">
                    <mxGeometry x="690" y="220" width="60" height="30" as="geometry"/>
                </mxCell>
            </root>
        </mxGraphModel>
    </diagram>
</mxfile>